<svg id="Layer_1" data-name="Layer 1" xmlns="http://www.w3.org/2000/svg" viewBox="0 0 387.22606 128">
  <defs>
    <style>
      .cls-1 {
        fill: #d92526;
      }

      .cls-2 {
        fill: #04258c;
      }
    </style>
  </defs>
  <title>CIDRAlogo-w-LabelBlue-Red</title>
  <g>
    <polygon class="cls-1" points="387.226 128 348.093 128 309.115 75.703 309.115 128 280.164 128 280.164 39.45 316.211 39.45 387.226 128"/>
    <path class="cls-2" d="M363.448,419.58973v.00008a41.82333,41.82333,0,0,1-41.82333,41.82334H296.9589v-29.131h33.90118V407.08079H296.9589v-29.3144h24.66578A41.82334,41.82334,0,0,1,363.448,419.58973Z" transform="translate(-206.38697 -336)"/>
    <path class="cls-2" d="M248.21031,377.76639h22.72911v29.3144H239.263v25.20139h31.67644v29.131H248.21031A41.82333,41.82333,0,0,1,206.387,419.58981v-.00008A41.82334,41.82334,0,0,1,248.21031,377.76639Z" transform="translate(-206.38697 -336)"/>
    <path class="cls-1" d="M470.13346,460.60592c-17.32943-20.41467-23.96285-27.9225-26.58546-30.69921q.54-.23163,1.08-.46294a25.30661,25.30661,0,0,0,11.10717-9.77013,28.45124,28.45124,0,0,0,3.80523-14.91272c0-8.74192-2.82819-15.68386-8.48456-20.62056-5.55374-4.88522-13.5242-7.40488-23.70611-7.40488h-42.3208v85.979h28.12839V433.14637h.77115c2.46851,1.79967,17.2268,18.66647,26.22578,29.10512l.41115.46294h31.36805Zm-47.36013-47.926h-9.616V398.69308h9.616c3.34229,0,5.862.61705,7.50752,1.74851a6.00082,6.00082,0,0,1,2.31408,5.14227,6.17121,6.17121,0,0,1-2.31408,5.29638C428.63528,412.06286,426.11562,412.67991,422.77333,412.67991Z" transform="translate(-206.38697 -336)"/>
    <path class="cls-2" d="M77.698,0h0A13.14554,13.14554,0,0,1,90.84355,13.14554V25.20138a0,0,0,0,1,0,0H64.55245a0,0,0,0,1,0,0V13.14554A13.14554,13.14554,0,0,1,77.698,0Z"/>
  </g>
</svg>
