<svg id="Layer_1" data-name="Layer 1" xmlns="http://www.w3.org/2000/svg" viewBox="0 0 381.47301 128">
  <defs>
    <style>
      .cls-1 {
        fill: #d92526;
      }

      .cls-2 {
        fill: #04258c;
      }
    </style>
  </defs>
  <title>CIDRAlogowLabelOutline</title>
  <g>
    <path class="cls-1" d="M590.73651,464H547.77438l-34.88447-46.804V464H480.93726V374.25426H518.763Zm-41.01516-3.87879h32.93182l-65.75189-81.98816H484.81605v81.98816h24.19508V405.501Z" transform="translate(-209.26349 -336)"/>
    <path class="cls-2" d="M322.94815,461.49148H297.09067v-32.1269h32.87358V408.80587H297.09067V376.501h25.85748a42.49527,42.49527,0,1,1,0,84.99053Zm-21.97869-3.87879h21.97869a38.61648,38.61648,0,1,0,0-77.233H300.96946v24.54735H333.843v28.31629H300.96946Z" transform="translate(-209.26349 -336)"/>
    <path class="cls-2" d="M275.7384,461.49148H251.75876a42.49527,42.49527,0,1,1,0-84.99053H275.7384v32.30492H245.022v20.55871H275.7384Zm-23.97964-81.11175a38.61648,38.61648,0,1,0,0,77.233h20.10085V433.24337H241.14323V404.92708h30.71638V380.37973Z" transform="translate(-209.26349 -336)"/>
    <path class="cls-1" d="M472.907,462.75379H437.41359l-.97727-1.10038c-10.37027-12.0303-18.76705-21.48011-22.78978-25.68182v26.7822H382.49171V375.501h42.97775c10.322,0,18.48674,2.5786,24.26894,7.66335,5.89394,5.14489,8.88542,12.36411,8.88542,21.45218a29.428,29.428,0,0,1-3.9697,15.465,26.04565,26.04565,0,0,1-10.2661,9.5464c4.19224,4.64583,12.25852,13.99905,24.04735,27.88636ZM439.1617,458.875h25.3409c-13.18181-15.518-21.50094-25.11837-24.73579-28.54356l-1.90815-2.01989,3.59849-1.54166a22.62975,22.62975,0,0,0,9.875-8.69034,25.62947,25.62947,0,0,0,3.41288-13.46307c0-7.91809-2.54451-14.15436-7.56345-18.53457-5.05776-4.44886-12.36079-6.70218-21.71212-6.70218h-39.099V458.875h23.39726V430.20265h3.31912l.51137.37216C416.4117,432.62784,432.25639,450.86742,439.1617,458.875ZM421.032,414.23485h-11.2642V396.79309H421.032c3.59375,0,6.41288.68513,8.37879,2.03693l.08144.05871a7.77309,7.77309,0,0,1,3.00284,6.526,7.9313,7.9313,0,0,1-3.00284,6.67425C427.496,413.52462,424.66548,414.23485,421.032,414.23485Zm-7.38542-3.87879H421.032c2.76515,0,4.892-.47727,6.14867-1.38068.643-.49432,1.43561-1.38163,1.43561-3.56061a3.87855,3.87855,0,0,0-1.44318-3.41666c-.91193-.61175-2.71212-1.32623-6.1411-1.32623h-7.38542Z" transform="translate(-209.26349 -336)"/>
    <path class="cls-2" d="M301.23272,364.31629H271.85961V350.68655a14.68655,14.68655,0,0,1,29.37311,0ZM275.7384,360.4375h21.61553v-9.75095a10.80777,10.80777,0,0,0-21.61553,0Z" transform="translate(-209.26349 -336)"/>
  </g>
</svg>
