<svg id="Layer_1" data-name="Layer 1" xmlns="http://www.w3.org/2000/svg" viewBox="0 0 128 128">
  <defs>
    <style>
      .cls-1 {
        fill: #04258c;
      }

      .cls-2 {
        fill: #fff;
      }
    </style>
  </defs>
  <title>CIDRAlogoBlueBg</title>
  <g>
    <circle class="cls-1" cx="64" cy="64" r="64"/>
    <g>
      <path class="cls-2" d="M439.47416,384.66858v0a21.02293,21.02293,0,0,1-21.02292,21.02293h-12.3985v-14.643h17.04077V378.38084H406.05274V363.64565h12.3985A21.02293,21.02293,0,0,1,439.47416,384.66858Z" transform="translate(-336 -315.67225)"/>
      <path class="cls-2" d="M381.54876,363.64565h11.425v14.73519H377.0513v12.66773h15.92248v14.643h-11.425a21.02293,21.02293,0,0,1-21.02292-21.02293v0A21.02293,21.02293,0,0,1,381.54876,363.64565Z" transform="translate(-336 -315.67225)"/>
      <path class="cls-2" d="M63.58152,26.9791h0a6.60774,6.60774,0,0,1,6.60774,6.60774v6.06a0,0,0,0,1,0,0H56.97378a0,0,0,0,1,0,0v-6.06a6.60774,6.60774,0,0,1,6.60774-6.60774Z"/>
    </g>
  </g>
</svg>
